<?xml version="1.0" encoding="UTF-8" standalone="no"?>
<svg
   xmlns:dc="http://purl.org/dc/elements/1.1/"
   xmlns:cc="http://creativecommons.org/ns#"
   xmlns:rdf="http://www.w3.org/1999/02/22-rdf-syntax-ns#"
   xmlns:svg="http://www.w3.org/2000/svg"
   xmlns="http://www.w3.org/2000/svg"
   viewBox="0 0 298.71249 458.125"
   height="458.125"
   width="298.71249"
   xml:space="preserve"
   version="1.1"
   id="svg2"><metadata
     id="metadata8"><rdf:RDF><cc:Work
         rdf:about=""><dc:format>image/svg+xml</dc:format><dc:type
           rdf:resource="http://purl.org/dc/dcmitype/StillImage" /><dc:title></dc:title></cc:Work></rdf:RDF></metadata><defs
     id="defs6" /><g
     transform="matrix(1.25,0,0,-1.25,0,458.125)"
     id="g10"><g
       transform="scale(0.1,0.1)"
       id="g12"><path
         id="path14"
         style="fill:#231f20;fill-opacity:1;fill-rule:nonzero;stroke:none"
         d="m 1504.59,1951.04 c 1.45,11.7 2.56,40.57 2.56,71.37 l 0,147.81 -71.95,0 5.11,39.39 181.52,0.78 -5.85,-39.39 -70.85,-0.39 0.37,-177.84 0,-3.89 0.36,-15.99 c 0,-11.7 0.36,-17.17 1.09,-21.85 l -42.36,0" /><path
         id="path16"
         style="fill:#231f20;fill-opacity:1;fill-rule:nonzero;stroke:none"
         d="m 1821.23,1951.04 c 0.72,10.15 1.46,25.75 2.19,46.42 l -1.1,161.84 c 0,15.6 -1.09,43.68 -1.82,51.09 l 41.63,0 c -0.72,-5.07 -0.72,-8.97 -1.09,-16.77 l -0.74,-16.77 0,-2.34 1.11,-97.5 111.38,0.39 0.36,93.6 0.38,4.29 c -0.38,10.92 -1.47,30.42 -1.47,35.49 l 43.1,0.39 c 0,-1.95 0,-1.95 -0.74,-10.14 -2.18,-32.76 -2.18,-40.17 -2.18,-86.19 l -0.36,-107.64 -0.38,-4.29 c 0,-15.21 1.47,-46.8 2.2,-51.87 l -43.83,0 c 1.46,10.15 2.56,36.27 2.56,53.43 l 0.36,33.15 -111.38,-0.38 0,-44.86 c 0,-15.21 0.36,-29.25 1.45,-41.34 l -41.63,0" /><path
         id="path18"
         style="fill:#231f20;fill-opacity:1;fill-rule:nonzero;stroke:none"
         d="m 2227.34,1951.04 c 2.2,23.4 2.2,30.42 2.2,46.02 l 0.36,157.17 c -0.73,30.03 -1.46,43.68 -2.92,54.21 l 154.48,1.17 -6.2,-39 c -6.58,1.17 -15.34,1.56 -41.27,1.95 l -65.01,-0.39 0.73,-93.21 65.01,0 4.38,0 c 35.43,1.56 35.43,1.56 38.35,2.34 l -6.94,-41.73 -101.53,0.78 -0.37,-51.09 47.85,-0.38 c 27.76,0.77 55.15,2.33 66.83,4.67 l -7.3,-42.51 -148.65,0" /><path
         id="path20"
         style="fill:#231f20;fill-opacity:1;fill-rule:nonzero;stroke:none"
         d="m 251.207,1483.03 c -29.582,-26.53 -57.34,-39.01 -88.019,-39.01 -67.1997,0 -121.6138,61.23 -121.6138,136.9 0,76.43 55.5117,138.05 124.1718,138.05 29.949,0 59.527,-12.48 84,-35.09 l -21.18,-37.45 c -21.187,20.67 -42.371,30.42 -64.644,30.42 -46.02,0 -84.7306,-43.29 -84.7306,-95.16 0,-51.87 38.7106,-95.55 85.4566,-95.55 21.915,0 37.985,7.41 61.36,28.47 l 25.199,-31.58" /><path
         id="path22"
         style="fill:#231f20;fill-opacity:1;fill-rule:nonzero;stroke:none"
         d="m 500.285,1555.17 -27.027,72.93 -25.934,-72.93 52.961,0 z m -25.933,170.43 109.57,-274.56 -41.637,0 -27.027,68.65 -82.176,0 -25.199,-68.65 -41.633,0 108.102,274.56" /><path
         id="path24"
         style="fill:#231f20;fill-opacity:1;fill-rule:nonzero;stroke:none"
         d="m 710.641,1718.97 99.703,-144.29 100.433,148.19 c -0.359,-5.07 -0.359,-8.96 -0.359,-9.36 0,-11.69 11.684,-251.55 12.777,-262.47 l -39.804,0 -5.118,161.46 -69.39,-100.23 -66.836,96.33 -4.379,-157.56 -37.258,0 10.231,267.93" /><path
         id="path26"
         style="fill:#231f20;fill-opacity:1;fill-rule:nonzero;stroke:none"
         d="m 1124.8,1576.62 c 6.21,-1.17 9.49,-1.55 17.16,-1.55 23.38,0 40.54,5.46 49.67,15.59 7.31,8.59 11.69,21.06 11.69,35.1 0,15.61 -5.48,29.25 -14.61,37.44 -9.5,8.59 -24.47,12.48 -45.65,12.48 -8.04,0 -11.33,-0.39 -18.26,-1.56 l 0,-97.5 z m -42.37,-125.58 c 0.37,4.68 3.29,51.1 3.29,53.04 l -0.37,9.76 -0.73,147.02 c -1.46,35.49 -1.82,39.78 -4.01,48.75 12.41,3.12 39.07,5.46 60.62,5.46 63.55,0 101.16,-32.37 101.16,-86.97 0,-28.47 -12.05,-55.38 -31.4,-71.36 -14.97,-12.48 -39.81,-19.9 -65.74,-19.9 -7.67,0 -12.42,0.4 -20.45,1.18 l 0,-38.62 c 0,-8.58 0.73,-27.68 1.82,-46.01 l 0.37,-2.35 -44.56,0" /><path
         id="path28"
         style="fill:#231f20;fill-opacity:1;fill-rule:nonzero;stroke:none"
         d="m 1448.01,1555.17 -27.02,72.93 -25.94,-72.93 52.96,0 z m -25.93,170.43 109.56,-274.56 -41.63,0 -27.03,68.65 -82.17,0 -25.2,-68.65 -41.64,0 108.11,274.56" /><path
         id="path30"
         style="fill:#231f20;fill-opacity:1;fill-rule:nonzero;stroke:none"
         d="m 1636.46,1451.04 c 1.09,26.92 1.82,48.36 1.82,63.57 l 0.36,142.74 c -0.36,26.91 -0.73,43.68 -1.45,52.65 l 42.36,0.39 c -1.09,-20.66 -1.83,-35.88 -1.83,-43.29 l 0,-5.46 -0.73,-164.19 0,-4.68 c 0,-10.92 1.1,-35.49 1.83,-41.73 l -42.36,0" /><path
         id="path32"
         style="fill:#231f20;fill-opacity:1;fill-rule:nonzero;stroke:none"
         d="m 1990.35,1655.4 c -20.46,14.04 -40.55,21.06 -61.36,21.06 -51.86,0 -91.3,-42.12 -91.3,-97.11 0,-53.03 36.52,-93.99 83.27,-93.99 42,0 79.98,34.72 84.36,77.23 l -63.18,-0.39 c -5.12,0 -31.78,-0.78 -49.67,-1.18 l -2.2,0 0,39.39 158.88,0 c -1.1,-23.79 -3.65,-42.12 -8.77,-61.23 -14.97,-56.54 -63.92,-95.94 -118.69,-95.94 -41.27,0 -77.43,20.68 -100.08,57.73 -14.61,23.78 -22.64,51.86 -22.64,78.78 0,77.6 58.8,139.61 132.57,139.61 30.69,0 62.83,-10.92 84.74,-29.24 l -25.93,-34.72" /><path
         id="path34"
         style="fill:#231f20;fill-opacity:1;fill-rule:nonzero;stroke:none"
         d="m 2175.51,1451.04 c 1.82,18.72 4.01,107.25 4.01,161.85 0,25.74 -0.36,56.55 -1.45,111.15 l 157.04,-177.06 -1.1,161.85 39.45,0 c -0.37,-17.55 -0.37,-31.19 -0.74,-38.61 l -1.09,-49.92 0.36,-7.8 -1.09,-165.74 -156.68,177.05 1.46,-172.77 -40.17,0" /><path
         id="path36"
         style="fill:#231f20;fill-opacity:1;fill-rule:nonzero;stroke:none"
         d="m 54.3555,951.039 c 2.1875,30.031 3.2851,50.711 3.2851,70.201 l 0,110.37 c 0,24.18 -0.7304,38.61 -3.6523,77.61 l 162.5197,-0.39 -6.203,-39 c -5.114,1.18 -23.375,1.96 -42.371,2.34 l -71.5824,-0.38 0,-93.22 63.1834,0 c 6.942,0 21.914,0.78 44.922,2.35 l -6.211,-42.51 c -5.84,0.77 -9.855,1.16 -14.601,1.16 l -17.536,0.78 -2.554,0 -0.367,0 -66.4692,0 0,-41.729 c 0,-12.48 0.7343,-36.269 1.8281,-47.582 l -44.1914,0" /><path
         id="path38"
         style="fill:#231f20;fill-opacity:1;fill-rule:nonzero;stroke:none"
         d="m 396.563,951.039 c 1.093,26.922 1.828,48.359 1.828,63.571 l 0.363,142.74 c -0.363,26.91 -0.731,43.68 -1.465,52.65 l 42.371,0.39 c -1.101,-20.66 -1.828,-35.88 -1.828,-43.29 l 0,-5.46 -0.73,-164.191 0,-4.679 c 0,-10.918 1.097,-35.489 1.824,-41.731 l -42.363,0" /><path
         id="path40"
         style="fill:#231f20;fill-opacity:1;fill-rule:nonzero;stroke:none"
         d="m 651.48,951.039 c 1.825,18.723 4.012,107.251 4.012,161.851 0,25.74 -0.359,56.55 -1.457,111.15 l 157.043,-177.06 -1.094,161.85 39.446,0 c -0.367,-17.55 -0.367,-31.19 -0.735,-38.61 l -1.093,-49.92 0.363,-7.8 -1.094,-165.738 -156.68,177.048 1.461,-172.771 -40.172,0" /><path
         id="path42"
         style="fill:#231f20;fill-opacity:1;fill-rule:nonzero;stroke:none"
         d="m 1161.32,1055.17 -27.02,72.93 -25.94,-72.93 52.96,0 z m -25.93,170.43 109.57,-274.561 -41.63,0 -27.03,68.651 -82.18,0 -25.2,-68.651 -41.63,0 108.1,274.561" /><path
         id="path44"
         style="fill:#231f20;fill-opacity:1;fill-rule:nonzero;stroke:none"
         d="m 1422.81,951.039 c 1.83,18.723 4.02,107.251 4.02,161.851 0,25.74 -0.37,56.55 -1.46,111.15 l 157.04,-177.06 -1.09,161.85 39.44,0 c -0.37,-17.55 -0.37,-31.19 -0.73,-38.61 l -1.09,-49.92 0.36,-7.8 -1.1,-165.738 -156.68,177.048 1.47,-172.771 -40.18,0" /><path
         id="path46"
         style="fill:#231f20;fill-opacity:1;fill-rule:nonzero;stroke:none"
         d="m 2029.8,983.031 c -29.58,-26.531 -57.35,-39.011 -88.02,-39.011 -67.2,0 -121.62,61.23 -121.62,136.9 0,76.43 55.51,138.05 124.18,138.05 29.94,0 59.53,-12.48 83.99,-35.09 l -21.18,-37.45 c -21.18,20.67 -42.36,30.42 -64.64,30.42 -46.02,0 -84.74,-43.29 -84.74,-95.16 0,-51.87 38.72,-95.549 85.47,-95.549 21.92,0 37.98,7.41 61.36,28.469 l 25.2,-31.579" /><path
         id="path48"
         style="fill:#231f20;fill-opacity:1;fill-rule:nonzero;stroke:none"
         d="m 2222.99,951.039 c 2.2,23.402 2.2,30.422 2.2,46.02 l 0.36,157.171 c -0.74,30.03 -1.47,43.68 -2.92,54.21 l 154.48,1.17 -6.2,-39 c -6.58,1.18 -15.34,1.56 -41.27,1.95 l -65.01,-0.39 0.72,-93.21 65.01,0 4.39,0 c 35.43,1.57 35.43,1.57 38.35,2.34 l -6.95,-41.73 -101.52,0.78 -0.37,-51.08 47.84,-0.391 c 27.76,0.781 55.16,2.332 66.84,4.672 l -7.31,-42.512 -148.64,0" /><path
         id="path50"
         style="fill:#231f20;fill-opacity:1;fill-rule:nonzero;stroke:none"
         d="m 53.9883,451.039 c 1.0937,26.922 1.8281,48.359 1.8281,63.57 l 0.3672,142.743 c -0.3672,26.91 -0.7344,43.679 -1.4648,52.648 l 42.3671,0.391 C 95.9883,689.73 95.2578,674.512 95.2578,667.102 l 0,-5.461 -0.7305,-164.192 0,-4.679 c 0,-10.918 1.0977,-35.489 1.8243,-41.731 l -42.3633,0" /><path
         id="path52"
         style="fill:#231f20;fill-opacity:1;fill-rule:nonzero;stroke:none"
         d="m 254.125,451.039 c 1.828,18.723 4.016,107.25 4.016,161.852 0,25.738 -0.364,56.55 -1.461,111.148 l 157.047,-177.059 -1.094,161.852 39.441,0 c -0.363,-17.551 -0.363,-31.191 -0.73,-38.613 l -1.094,-49.918 0.359,-7.801 -1.093,-165.738 -156.68,177.047 1.461,-172.77 -40.172,0" /><path
         id="path54"
         style="fill:#231f20;fill-opacity:1;fill-rule:nonzero;stroke:none"
         d="m 601.445,504.469 c 20.817,-17.16 42.364,-26.129 62.817,-26.129 21.183,0 38.711,16.39 38.711,37.051 0,19.89 -13.145,31.199 -47.473,41.351 -35.066,10.129 -52.961,21.438 -63.918,40.156 -7.305,12.481 -10.957,25.754 -10.957,39.391 0,47.59 37.984,86.191 84.73,86.191 27.028,0 54.786,-12.48 77.43,-35.101 l -21.183,-32.367 c -25.567,19.5 -42.731,27.297 -60.625,27.297 -21.914,0 -39.809,-17.547 -39.809,-39 0,-12.868 5.844,-24.567 15.703,-32.36 5.477,-4.687 17.895,-9.758 38.715,-16 46.016,-13.648 67.93,-37.437 67.93,-73.32 0,-45.227 -36.891,-80.328 -84,-80.328 -25.567,0 -63.18,14.031 -79.618,29.64 l 21.547,33.528" /><path
         id="path56"
         style="fill:#231f20;fill-opacity:1;fill-rule:nonzero;stroke:none"
         d="m 905.305,451.039 c 1.457,11.703 2.55,40.563 2.55,71.371 l 0,147.809 -71.945,0 5.117,39.39 181.513,0.782 -5.84,-39.379 -70.86,-0.403 0.367,-177.839 0,-3.891 0.367,-16 c 0,-11.699 0.364,-17.16 1.094,-21.84 l -42.363,0" /><path
         id="path58"
         style="fill:#231f20;fill-opacity:1;fill-rule:nonzero;stroke:none"
         d="m 1137.22,451.039 c 1.09,26.922 1.82,48.359 1.82,63.57 l 0.37,142.743 c -0.37,26.91 -0.73,43.679 -1.47,52.648 l 42.37,0.391 c -1.1,-20.661 -1.82,-35.879 -1.82,-43.289 l 0,-5.461 -0.74,-164.192 0,-4.679 c 0,-10.918 1.1,-35.489 1.83,-41.731 l -42.36,0" /><path
         id="path60"
         style="fill:#231f20;fill-opacity:1;fill-rule:nonzero;stroke:none"
         d="m 1371.32,451.039 c 1.45,11.703 2.56,40.563 2.56,71.371 l 0,147.809 -71.96,0 5.12,39.39 181.51,0.782 -5.84,-39.379 -70.85,-0.403 0.37,-177.839 0,-3.891 0.36,-16 c 0,-11.699 0.36,-17.16 1.09,-21.84 l -42.36,0" /><path
         id="path62"
         style="fill:#231f20;fill-opacity:1;fill-rule:nonzero;stroke:none"
         d="m 1651.06,711.172 c -1.45,-14.043 -2.18,-33.141 -2.18,-55.774 l 0.36,-93.589 0,-3.911 c 0,-26.898 3.29,-42.507 11.69,-53.039 9.86,-12.867 27.02,-20.66 44.92,-20.66 19.36,0 36.88,8.961 46.75,23.793 9.86,15.199 14.61,40.938 13.87,75.649 l 0,7.8 0.37,63.18 c 0,3.899 -0.37,28.469 -0.73,31.981 -0.37,9.367 -0.37,15.218 -0.37,18.328 l 0,5.851 40.91,0.391 c -1.09,-22.231 -1.46,-31.981 -2.2,-57.711 l 0.37,-3.91 -0.37,-63.172 c -0.36,-42.117 -4.74,-72.149 -13.5,-90.867 -14.98,-32.77 -45.66,-51.102 -85.47,-51.102 -35.79,0 -68.29,17.16 -83.26,43.68 -8.41,14.43 -12.79,43.691 -13.16,87.359 l -0.36,85.41 c 0,9.36 -0.37,19.11 -0.73,27.692 -0.73,14.429 -0.73,18.719 -0.73,22.621 l 43.82,0" /><path
         id="path64"
         style="fill:#231f20;fill-opacity:1;fill-rule:nonzero;stroke:none"
         d="m 1987.43,451.039 c 1.46,11.703 2.56,40.563 2.56,71.371 l 0,147.809 -71.95,0 5.11,39.39 181.52,0.782 -5.85,-39.379 -70.85,-0.403 0.37,-177.839 0,-3.891 0.36,-16 c 0,-11.699 0.36,-17.16 1.1,-21.84 l -42.37,0" /><path
         id="path66"
         style="fill:#231f20;fill-opacity:1;fill-rule:nonzero;stroke:none"
         d="m 2227,451.039 c 2.2,23.402 2.2,30.422 2.2,46.02 l 0.36,157.171 c -0.73,30.032 -1.46,43.68 -2.92,54.211 l 154.48,1.168 -6.2,-39 c -6.58,1.18 -15.34,1.563 -41.27,1.95 l -65.01,-0.387 0.73,-93.211 65.01,0 4.38,0 c 35.43,1.57 35.43,1.57 38.35,2.34 l -6.94,-41.731 -101.53,0.782 -0.37,-51.082 47.84,-0.391 c 27.77,0.781 55.16,2.332 66.84,4.672 l -7.31,-42.512 -148.64,0" /><path
         id="path68"
         style="fill:#231f20;fill-opacity:1;fill-rule:nonzero;stroke:none"
         d="m 31.7734,1958.04 1118.88,0 0,251.742 -1118.88,0 0,-251.742 z" /><path
         id="path70"
         style="fill:#231f20;fill-opacity:1;fill-rule:nonzero;stroke:none"
         d="m 31.7734,0 2342.66,0 0,251.75 -2342.66,0 0,-251.75 z" /><path
         id="path72"
         style="fill:#231f20;fill-opacity:1;fill-rule:nonzero;stroke:none"
         d="M 965.258,2652.94 C 868.402,2562.76 708.082,2500.98 562.793,2500.98 255.512,2500.98 0,2768.18 0,3087.15 c 0,310.62 258.852,577.82 561.125,577.82 125.246,0 277.215,-51.77 350.695,-120.24 -18.367,-28.39 -31.726,-51.77 -56.781,-96.86 -21.707,-40.08 -43.418,-78.49 -53.437,-95.19 -95.192,61.79 -148.629,81.83 -230.457,81.83 -187.043,0 -322.309,-150.3 -322.309,-357.38 0,-200.4 133.598,-349.03 313.957,-349.03 103.543,0 202.07,40.08 278.887,113.56 11.691,-25.05 16.699,-33.4 35.074,-63.46 l 80.156,-113.57 8.348,-11.69" /><path
         id="path74"
         style="fill:#231f20;fill-opacity:1;fill-rule:nonzero;stroke:none"
         d="m 1905.45,3429.5 -475.94,-1.67 -1.68,-297.26 439.22,-1.67 -21.72,-218.77 -417.5,0 -1.66,-126.92 c 0,-40.08 1.66,-120.25 5,-151.98 5.02,-68.47 8.36,-103.54 8.36,-108.55 l -272.22,0 0,8.35 8.35,103.54 c 1.67,31.74 3.34,73.49 3.34,145.3 l 0,592.85 c 0,73.48 -6.68,215.43 -11.69,263.86 l 719.78,0 18.36,-207.08" /><path
         id="path76"
         style="fill:#231f20;fill-opacity:1;fill-rule:nonzero;stroke:none"
         d="m 2389.75,3636.58 c -5,-18.37 -15.02,-195.39 -15.02,-247.16 l -6.68,-661.32 c 1.66,-41.75 10.02,-173.69 15.02,-205.42 l -268.87,0 c 6.68,31.73 11.68,118.57 11.68,202.08 l 5.02,696.38 c 0,25.06 -5.02,148.64 -10.02,215.44 l 268.87,0" /></g></g></svg>