<?xml version="1.0" encoding="UTF-8" standalone="no"?>
<svg
   xmlns:dc="http://purl.org/dc/elements/1.1/"
   xmlns:cc="http://creativecommons.org/ns#"
   xmlns:rdf="http://www.w3.org/1999/02/22-rdf-syntax-ns#"
   xmlns:svg="http://www.w3.org/2000/svg"
   xmlns="http://www.w3.org/2000/svg"
   xmlns:sodipodi="http://sodipodi.sourceforge.net/DTD/sodipodi-0.dtd"
   xmlns:inkscape="http://www.inkscape.org/namespaces/inkscape"
   viewBox="0 0 298.71875 145.49875"
   height="145.49875"
   width="298.71875"
   xml:space="preserve"
   version="1.1"
   id="svg2"
   inkscape:version="0.91 r13725"
   sodipodi:docname="CFI-logo-mini.svg"><sodipodi:namedview
     pagecolor="#ffffff"
     bordercolor="#666666"
     borderopacity="1"
     objecttolerance="10"
     gridtolerance="10"
     guidetolerance="10"
     inkscape:pageopacity="0"
     inkscape:pageshadow="2"
     inkscape:window-width="1855"
     inkscape:window-height="1056"
     id="namedview3482"
     showgrid="false"
     inkscape:zoom="2.0060027"
     inkscape:cx="75.577683"
     inkscape:cy="-48.247677"
     inkscape:window-x="1985"
     inkscape:window-y="24"
     inkscape:window-maximized="1"
     inkscape:current-layer="g10"
     fit-margin-top="0"
     fit-margin-left="0"
     fit-margin-right="0"
     fit-margin-bottom="0" /><metadata
     id="metadata8"><rdf:RDF><cc:Work
         rdf:about=""><dc:format>image/svg+xml</dc:format><dc:type
           rdf:resource="http://purl.org/dc/dcmitype/StillImage" /><dc:title></dc:title></cc:Work></rdf:RDF></metadata><defs
     id="defs6" /><g
     transform="matrix(1.25,0,0,-1.25,0,458.12125)"
     id="g10"><g
       id="g4335"><path
         id="path72"
         style="fill:#16275a;fill-opacity:1;fill-rule:nonzero;stroke:none"
         d="M 96.5258,265.294 C 86.8402,256.276 70.8082,250.098 56.2793,250.098 25.5512,250.098 0,276.818 0,308.715 c 0,31.062 25.8852,57.782 56.1125,57.782 12.5246,0 27.7215,-5.177 35.0695,-12.024 -1.8367,-2.839 -3.1726,-5.177 -5.6781,-9.686 -2.1707,-4.008 -4.3418,-7.849 -5.3437,-9.519 -9.5192,6.179 -14.8629,8.183 -23.0457,8.183 -18.7043,0 -32.2309,-15.03 -32.2309,-35.738 0,-20.04 13.3598,-34.903 31.3957,-34.903 10.3543,0 20.207,4.008 27.8887,11.356 1.1691,-2.505 1.6699,-3.34 3.5074,-6.346 l 8.0156,-11.357 0.8348,-1.169"
         inkscape:connector-curvature="0" /><path
         id="path74"
         style="fill:#16275a;fill-opacity:1;fill-rule:nonzero;stroke:none"
         d="m 190.545,342.95 -47.594,-0.167 -0.168,-29.726 43.922,-0.167 -2.172,-21.877 -41.75,0 -0.166,-12.692 c 0,-4.008 0.166,-12.025 0.5,-15.198 0.502,-6.847 0.836,-10.354 0.836,-10.855 l -27.222,0 0,0.835 0.835,10.354 c 0.167,3.174 0.334,7.349 0.334,14.53 l 0,59.285 c 0,7.348 -0.668,21.543 -1.169,26.386 l 71.978,0 1.836,-20.708"
         inkscape:connector-curvature="0" /><path
         id="path76"
         style="fill:#16275a;fill-opacity:1;fill-rule:nonzero;stroke:none"
         d="m 238.975,363.658 c -0.5,-1.837 -1.502,-19.539 -1.502,-24.716 l -0.668,-66.132 c 0.166,-4.175 1.002,-17.369 1.502,-20.542 l -26.887,0 c 0.668,3.173 1.168,11.857 1.168,20.208 l 0.502,69.638 c 0,2.506 -0.502,14.864 -1.002,21.544 l 26.887,0"
         inkscape:connector-curvature="0" /></g></g></svg>